<?xml version="1.0" encoding="iso-8859-1"?>
<!-- Generator: Adobe Illustrator 19.0.0, SVG Export Plug-In . SVG Version: 6.00 Build 0)  -->
<svg xmlns="http://www.w3.org/2000/svg" xmlns:xlink="http://www.w3.org/1999/xlink" version="1.1" id="Capa_1" x="0px" y="0px" viewBox="0 0 512.002 512.002" style="enable-background:new 0 0 512.002 512.002;" xml:space="preserve" width="512px" height="512px">
<g>
	<g>
		<path d="M512.001,242.5c0-29.486-22.313-53.846-50.939-57.115c-3.127-11.664-13.747-20.29-26.363-20.38    c-0.061-0.002-0.122-0.005-0.183-0.005c-0.016,0-50.016,0-50.016,0c-0.077,0.001-0.115,0.003-0.153,0.004    c-12.496,0.069-23.039,8.515-26.299,19.996H334.5c-28.948,0-52.5-23.551-52.5-52.5c0-4.142-3.357-7.5-7.5-7.5s-7.5,3.358-7.5,7.5    c0,37.22,30.28,67.5,67.5,67.5H357v59.759c-9.693,11.989-15,26.935-15,42.406V352.5c0,4.142,3.357,7.5,7.5,7.5H372v129.094    l-24.872,8.291c-3.929,1.31-6.053,5.557-4.743,9.487c1.048,3.143,3.974,5.13,7.114,5.13c0.786,0,1.586-0.124,2.373-0.387l30-10    c3.062-1.021,5.128-3.887,5.128-7.115V360h45v129.094l-24.872,8.291c-3.929,1.31-6.053,5.557-4.743,9.487    c1.048,3.143,3.974,5.13,7.114,5.13c0.786,0,1.586-0.124,2.373-0.387l30-10c3.062-1.021,5.128-3.887,5.128-7.115V360h22.5    c4.143,0,7.5-3.358,7.5-7.5v-50.335c0-2.216-0.121-4.419-0.336-6.606C497.758,286.72,512.001,265.765,512.001,242.5z M421.753,180    l-12.252,22.049L397.249,180H421.753z M372.003,192.5c-0.002-5.48,3.547-10.136,8.464-11.819l22.479,40.452    c1.322,2.38,3.832,3.857,6.556,3.857s5.233-1.477,6.556-3.857l22.479-40.452c4.917,1.683,8.466,6.34,8.466,11.819V255h-30v-7.51    c0-4.142-3.357-7.5-7.5-7.5s-7.5,3.358-7.5,7.5V255h-30V192.5z M357.001,345v-42.835c0-11.686,3.905-22.981,11.038-32.165h82.923    c7.133,9.184,11.038,20.479,11.038,32.165V345H357.001z M473.431,280.551c-2.539-7.502-6.384-14.549-11.43-20.791v-59.083    c19.868,3.554,35,20.949,35,41.824C497.001,258.745,487.608,273.462,473.431,280.551z" fill="#14204a"/>
	</g>
</g>
<g>
	<g>
		<path d="M431.836,50.001c4.762-5.312,7.665-12.323,7.665-20.001c0-16.542-13.458-30-30-30s-30,13.458-30,30    c0,7.678,2.903,14.689,7.665,20.001c-17.808,8.408-30.165,26.534-30.165,47.499c0,28.949,23.552,52.5,52.5,52.5    s52.5-23.551,52.5-52.5C462.001,76.535,449.645,58.409,431.836,50.001z M409.501,15c8.271,0,15,6.729,15,15s-6.729,15-15,15    s-15-6.729-15-15S401.23,15,409.501,15z M409.501,60c17.961,0,33.005,12.694,36.651,29.58c-20.154-2-38.58-11.212-52.297-26.147    C398.62,61.236,403.918,60,409.501,60z M409.501,135c-20.678,0-37.5-16.822-37.5-37.5c0-9.663,3.675-18.483,9.7-25.139    c16.692,18.803,39.576,30.244,64.607,32.299C442.955,121.924,427.73,135,409.501,135z" fill="#14204a"/>
	</g>
</g>
<g>
	<g>
		<path d="M37.501,255c-20.678,0-37.5,16.822-37.5,37.5c0,20.678,16.822,37.5,37.5,37.5c20.678,0,37.5-16.822,37.5-37.5    C75.001,271.822,58.179,255,37.501,255z M37.501,315c-12.407,0-22.5-10.093-22.5-22.5c0-12.407,10.093-22.5,22.5-22.5    c12.407,0,22.5,10.093,22.5,22.5C60.001,304.907,49.908,315,37.501,315z" fill="#14204a"/>
	</g>
</g>
<g>
	<g>
		<path d="M47.501,345h-20c-15.164,0-27.5,12.336-27.5,27.5v132c0,4.142,3.358,7.5,7.5,7.5c4.142,0,7.5-3.358,7.5-7.5v-57.02    c6.272,4.719,14.064,7.52,22.5,7.52c8.436,0,16.228-2.801,22.5-7.52v57.02c0,4.142,3.358,7.5,7.5,7.5c4.142,0,7.5-3.358,7.5-7.5    v-132C75.001,357.337,62.665,345,47.501,345z M37.501,440c-11.561,0-21.11-8.766-22.358-20h44.716    C58.611,431.234,49.062,440,37.501,440z M60.001,405h-45v-32.5c0-6.892,5.607-12.5,12.5-12.5h20c6.893,0,12.5,5.607,12.5,12.5V405    z" fill="#14204a"/>
	</g>
</g>
<g>
	<g>
		<path d="M127.501,255c-20.678,0-37.5,16.822-37.5,37.5c0,20.678,16.822,37.5,37.5,37.5c20.678,0,37.5-16.822,37.5-37.5    C165.001,271.822,148.179,255,127.501,255z M127.501,315c-12.407,0-22.5-10.093-22.5-22.5c0-12.407,10.093-22.5,22.5-22.5    c12.407,0,22.5,10.093,22.5,22.5C150.001,304.907,139.908,315,127.501,315z" fill="#14204a"/>
	</g>
</g>
<g>
	<g>
		<path d="M137.501,345h-20c-15.164,0-27.5,12.336-27.5,27.5v132c0,4.142,3.358,7.5,7.5,7.5c4.142,0,7.5-3.358,7.5-7.5v-57.02    c6.272,4.719,14.064,7.52,22.5,7.52c8.436,0,16.228-2.801,22.5-7.52v57.02c0,4.142,3.358,7.5,7.5,7.5c4.142,0,7.5-3.358,7.5-7.5    v-132C165.001,357.337,152.665,345,137.501,345z M127.501,440c-11.561,0-21.11-8.766-22.358-20h44.716    C148.611,431.234,139.062,440,127.501,440z M150.001,405h-45v-32.5c0-6.892,5.607-12.5,12.5-12.5h20c6.893,0,12.5,5.607,12.5,12.5    V405z" fill="#14204a"/>
	</g>
</g>
<g>
	<g>
		<path d="M277.501,285c-4.143,0-7.5,3.358-7.5,7.5v50c0,10.259-6.904,18.93-16.308,21.626C250.142,353.046,239.745,345,227.501,345    h-20c-15.164,0-27.5,12.336-27.5,27.5v132c0,4.142,3.358,7.5,7.5,7.5c4.142,0,7.5-3.358,7.5-7.5v-57.02    c6.272,4.719,14.064,7.52,22.5,7.52c8.436,0,16.228-2.801,22.5-7.52v57.02c0,4.142,3.358,7.5,7.5,7.5c4.142,0,7.5-3.358,7.5-7.5    V379.246c17.096-3.484,30-18.635,30-36.745v-50C285.001,288.358,281.644,285,277.501,285z M217.501,440    c-11.561,0-21.11-8.766-22.358-20h44.716C238.611,431.234,229.062,440,217.501,440z M240.001,405h-45v-32.5    c0-6.892,5.608-12.5,12.5-12.5h20c6.893,0,12.5,5.607,12.5,12.5V405z" fill="#14204a"/>
	</g>
</g>
<g>
	<g>
		<path d="M217.501,255c-20.678,0-37.5,16.822-37.5,37.5c0,20.678,16.822,37.5,37.5,37.5c20.678,0,37.5-16.822,37.5-37.5    C255.001,271.822,238.179,255,217.501,255z M217.501,315c-12.407,0-22.5-10.093-22.5-22.5c0-12.407,10.093-22.5,22.5-22.5    c12.407,0,22.5,10.093,22.5,22.5C240.001,304.907,229.908,315,217.501,315z" fill="#14204a"/>
	</g>
</g>
<g>
	<g>
		<path d="M337.855,30.792l-60-30c-2.325-1.163-5.086-1.039-7.298,0.328C268.346,2.487,267,4.901,267,7.5v59.849    c-0.002,0.104-0.002,0.209,0,0.313V102.5c0.001,4.142,3.358,7.5,7.501,7.5s7.5-3.358,7.5-7.5V72.135l55.854-27.927    c2.54-1.27,4.146-3.867,4.146-6.708S340.396,32.062,337.855,30.792z M282.002,55.365V19.636L317.731,37.5L282.002,55.365z" fill="#14204a"/>
	</g>
</g>
<g>
</g>
<g>
</g>
<g>
</g>
<g>
</g>
<g>
</g>
<g>
</g>
<g>
</g>
<g>
</g>
<g>
</g>
<g>
</g>
<g>
</g>
<g>
</g>
<g>
</g>
<g>
</g>
<g>
</g>
</svg>
