<?xml version="1.0" encoding="iso-8859-1"?>
<svg xmlns="http://www.w3.org/2000/svg" xmlns:xlink="http://www.w3.org/1999/xlink" version="1.1" viewBox="0 0 64 64" enable-background="new 0 0 64 64" width="512px" height="512px">
  <g>
    <g>
      <path d="m32,0c-17.673,0-32,14.327-32,32 0,17.673 14.327,32 32,32s32-14.327 32-32c0-17.673-14.327-32-32-32zm-1,33v12.022c-4.31,0.118-8.426,0.993-12.227,2.499-2.252-4.373-3.587-9.296-3.739-14.521h15.966zm-15.966-2c0.152-5.225 1.487-10.147 3.739-14.521 3.801,1.506 7.917,2.381 12.227,2.499v12.022h-15.966zm17.966,2h15.966c-0.152,5.225-1.487,10.147-3.739,14.521-3.8-1.506-7.917-2.381-12.227-2.499v-12.022zm0-2v-12.022c4.31-0.118 8.427-0.993 12.227-2.499 2.252,4.373 3.587,9.296 3.739,14.521h-15.966zm14.067-15.302c2.447-1.131 4.742-2.533 6.856-4.158 4.792,5.13 7.804,11.943 8.051,19.46h-11.007c-0.151-5.503-1.547-10.687-3.9-15.302zm5.426-5.581c-1.973,1.492-4.11,2.78-6.384,3.82-2.734-4.695-6.49-8.722-10.98-11.758 6.687,0.694 12.717,3.587 17.364,7.938zm-8.241,4.596c-3.507,1.358-7.292,2.15-11.252,2.265v-13.795c4.612,2.886 8.476,6.848 11.252,11.53zm-13.252,2.265c-3.96-0.115-7.745-0.908-11.252-2.265 2.775-4.682 6.64-8.644 11.252-11.53v13.795zm-13.108-3.041c-2.275-1.04-4.411-2.328-6.385-3.82 4.647-4.351 10.677-7.244 17.364-7.938-4.49,3.037-8.246,7.063-10.979,11.758zm-7.816-2.397c2.114,1.625 4.409,3.027 6.856,4.158-2.352,4.615-3.749,9.799-3.9,15.302h-11.007c0.247-7.517 3.259-14.331 8.051-19.46zm2.957,21.46c0.151,5.503 1.548,10.687 3.9,15.302-2.447,1.131-4.742,2.533-6.856,4.158-4.793-5.129-7.805-11.943-8.052-19.46h11.008zm-1.526,20.883c1.973-1.492 4.11-2.78 6.385-3.82 2.734,4.695 6.49,8.722 10.98,11.758-6.688-0.694-12.718-3.587-17.365-7.938zm8.241-4.596c3.506-1.358 7.292-2.151 11.252-2.265v13.796c-4.612-2.887-8.476-6.849-11.252-11.531zm13.252-2.265c3.96,0.115 7.745,0.908 11.252,2.265-2.775,4.682-6.64,8.644-11.252,11.53v-13.795zm13.108,3.041c2.274,1.04 4.411,2.328 6.384,3.82-4.647,4.351-10.677,7.244-17.364,7.938 4.491-3.036 8.247-7.063 10.98-11.758zm7.816,2.397c-2.114-1.625-4.409-3.027-6.856-4.158 2.352-4.615 3.749-9.799 3.9-15.302h11.007c-0.247,7.517-3.259,14.331-8.051,19.46z" fill="#14204a"/>
    </g>
  </g>
</svg>
